<svg xmlns="http://www.w3.org/2000/svg" viewBox="0 0 944.09 163.78"><defs><style>.cls-1{fill:#00a982;}.cls-2{stroke:#000;stroke-miterlimit:10;}</style></defs><g id="Ebene_2" data-name="Ebene 2"><g id="Ebene_1-2" data-name="Ebene 1"><path class="cls-1" d="M883.77,2.18l-118,73.34a14.46,14.46,0,0,0-4.64,19.9L799.35,157a14.45,14.45,0,0,0,19.9,4.65l118-73.35a14.44,14.44,0,0,0,4.65-19.89L903.67,6.82A14.46,14.46,0,0,0,883.77,2.18ZM800.62,123.47a9,9,0,1,1-1.57-12.65A9,9,0,0,1,800.62,123.47Z"/><path class="cls-2" d="M835.89,68.37q5.13,8.31,4,14.6t-7.51,10.21a16.72,16.72,0,0,1-8.08,2.61,13.63,13.63,0,0,1-8.16-2.38,24.17,24.17,0,0,1-7.23-7.84,33.59,33.59,0,0,1-4.47-10.26,12.88,12.88,0,0,1,.83-8.44,16.42,16.42,0,0,1,6.51-6.71,18.56,18.56,0,0,1,6.6-2.63,12.71,12.71,0,0,1,6.32.52,16.53,16.53,0,0,1,5.88,3.6A31.43,31.43,0,0,1,835.89,68.37ZM827.5,73c-2.34-3.79-4.45-6.31-6.33-7.53a5.11,5.11,0,0,0-5.89.07,5.27,5.27,0,0,0-2.57,3.29,8,8,0,0,0,.56,4.69,40.22,40.22,0,0,0,3.34,6.44,41.35,41.35,0,0,0,4.34,6,8.21,8.21,0,0,0,3.94,2.64,5.26,5.26,0,0,0,4.11-.82,5.09,5.09,0,0,0,2.68-5.44Q831.14,78.86,827.5,73ZM858.11,39.5l-.22,80.71c.06,2.16-.49,3.61-1.65,4.32a3.86,3.86,0,0,1-2.47.47,2.77,2.77,0,0,1-2.22-1.36,5,5,0,0,1-.5-2.75l.14-81.33a19,19,0,0,1,.19-3.44A3.07,3.07,0,0,1,853,34a3.51,3.51,0,0,1,2.57-.54A3.11,3.11,0,0,1,857.57,35Q858.14,35.95,858.11,39.5Zm41.68,32.86q5.12,8.3,4,14.6c-.77,4.19-3.27,7.6-7.51,10.2a16.66,16.66,0,0,1-8.13,2.62,14,14,0,0,1-8.17-2.34,23.77,23.77,0,0,1-7.25-7.83q-5.24-8.48-4.63-14.76t7.64-10.62a18.3,18.3,0,0,1,6.58-2.61,13.34,13.34,0,0,1,6.27.45,15.69,15.69,0,0,1,5.88,3.54A32.22,32.22,0,0,1,899.79,72.36Zm-8.4,4.58q-3.45-5.61-6.27-7.45a5.13,5.13,0,0,0-5.9.07,5.41,5.41,0,0,0-2.64,3.31,8.22,8.22,0,0,0,.5,4.64A36.18,36.18,0,0,0,880.37,84q3.58,5.84,6.49,7.76a5.18,5.18,0,0,0,6,0,5.07,5.07,0,0,0,2.65-5.44Q895,82.81,891.39,76.94Z"/><path class="cls-1" d="M71.46,40.57H24.06V71H63.68c3.68,0,6.42.83,8.23,2.47A8.5,8.5,0,0,1,74.62,80a8.33,8.33,0,0,1-2.75,6.56Q69.11,89,63.68,89H24.06v39.13q0,7.46-3.36,11.06a11.29,11.29,0,0,1-8.63,3.61,11.32,11.32,0,0,1-8.71-3.65Q0,135.53,0,128.15V36.76a20,20,0,0,1,1.54-8.47,9.55,9.55,0,0,1,4.82-4.78A20.26,20.26,0,0,1,14.75,22H71.46q5.76,0,8.55,2.56a8.63,8.63,0,0,1,2.79,6.68A8.75,8.75,0,0,1,80,38Q77.22,40.57,71.46,40.57Z"/><path class="cls-1" d="M114.81,110.89v18.48q0,6.72-3.16,10.09a10.54,10.54,0,0,1-8,3.36,10.15,10.15,0,0,1-7.86-3.4q-3.08-3.4-3.08-10V67.79q0-14.91,10.78-14.91c3.67,0,6.32,1.17,7.94,3.49s2.51,5.75,2.67,10.29a38.72,38.72,0,0,1,8.14-10.29q4.17-3.48,11.14-3.49a28.52,28.52,0,0,1,13.53,3.49q6.57,3.48,6.57,9.23a8.81,8.81,0,0,1-2.8,6.69,8.67,8.67,0,0,1-6,2.63,27.87,27.87,0,0,1-5.88-1.5,27.33,27.33,0,0,0-8.22-1.5,12,12,0,0,0-7.94,2.56,16.25,16.25,0,0,0-4.78,7.57,52.44,52.44,0,0,0-2.35,12Q114.8,100.93,114.81,110.89Z"/><path class="cls-1" d="M223.14,103.28H179.87a29.38,29.38,0,0,0,3,13.29,20.31,20.31,0,0,0,18.67,11.58,26.6,26.6,0,0,0,7.26-.93,23.6,23.6,0,0,0,6.36-2.92,48.71,48.71,0,0,0,5.67-4.25q2.59-2.26,6.72-6.16a7.29,7.29,0,0,1,4.86-1.46A8,8,0,0,1,238,114.3a6.64,6.64,0,0,1,2.11,5.26,14.34,14.34,0,0,1-2.35,7,27.82,27.82,0,0,1-7.09,7.7,40.32,40.32,0,0,1-11.91,6.12,51.33,51.33,0,0,1-16.49,2.43q-21.3,0-33.14-12.16t-11.83-33a55.11,55.11,0,0,1,2.92-18.19,40.17,40.17,0,0,1,8.51-14.38,37,37,0,0,1,13.77-9.2,49.55,49.55,0,0,1,18.15-3.2q13,0,22.24,5.47a36,36,0,0,1,13.9,14.14A37.17,37.17,0,0,1,241.37,90q0,8.36-4.78,10.82T223.14,103.28ZM179.87,90.72H220q-.81-11.34-6.12-17t-14-5.63a17.69,17.69,0,0,0-13.57,5.71Q181,79.55,179.87,90.72Z"/><path class="cls-1" d="M321.74,103.28H278.47a29.51,29.51,0,0,0,3,13.29,20.31,20.31,0,0,0,18.68,11.58,26.58,26.58,0,0,0,7.25-.93,23.33,23.33,0,0,0,6.36-2.92,48.71,48.71,0,0,0,5.67-4.25q2.59-2.26,6.73-6.16a7.25,7.25,0,0,1,4.86-1.46,8,8,0,0,1,5.51,1.87,6.67,6.67,0,0,1,2.1,5.26,14.34,14.34,0,0,1-2.35,7,27.67,27.67,0,0,1-7.09,7.7,40.32,40.32,0,0,1-11.91,6.12,51.27,51.27,0,0,1-16.48,2.43q-21.31,0-33.14-12.16t-11.83-33a54.85,54.85,0,0,1,2.92-18.19,40.15,40.15,0,0,1,8.5-14.38,37,37,0,0,1,13.78-9.2,49.48,49.48,0,0,1,18.15-3.2q13,0,22.24,5.47a36,36,0,0,1,13.89,14.14A37.17,37.17,0,0,1,340,90q0,8.36-4.78,10.82T321.74,103.28ZM278.47,90.72h40.11q-.81-11.34-6.12-17t-14-5.63a17.68,17.68,0,0,0-13.57,5.71Q279.61,79.55,278.47,90.72Z"/><path d="M406.25,94.53h-22v33.62q0,7.22-3.4,10.94a12,12,0,0,1-17.34,0q-3.33-3.69-3.33-10.82V36.76q0-7.93,3.65-11.34T375.38,22h30.87q13.68,0,21.06,2.11a31.41,31.41,0,0,1,12.6,6.72A30.28,30.28,0,0,1,448,42.35a40.43,40.43,0,0,1,2.76,15.31q0,18.15-11.18,27.51T406.25,94.53Zm-5.84-54.45h-16.2v36.3h16.2a48.38,48.38,0,0,0,14.22-1.78,16.54,16.54,0,0,0,8.71-5.84q3-4,3-10.61,0-7.86-4.62-12.8Q416.53,40.09,400.41,40.08Z"/><path d="M545.77,97.85a52.33,52.33,0,0,1-3.08,18.23,40.17,40.17,0,0,1-8.91,14.34,39.45,39.45,0,0,1-13.94,9.2,49.35,49.35,0,0,1-18.23,3.2,47.89,47.89,0,0,1-18.07-3.24A39.94,39.94,0,0,1,460.73,116a52.28,52.28,0,0,1-3-18.19,52.57,52.57,0,0,1,3.08-18.39,39.92,39.92,0,0,1,8.83-14.26,39,39,0,0,1,13.93-9.12,52.76,52.76,0,0,1,36.3,0,39.21,39.21,0,0,1,22.89,23.5A52.62,52.62,0,0,1,545.77,97.85Zm-22.2,0q0-13.53-6-21.07a19.34,19.34,0,0,0-16-7.53,19.81,19.81,0,0,0-11.42,3.36,21.24,21.24,0,0,0-7.62,9.93,40.42,40.42,0,0,0-2.67,15.31A40,40,0,0,0,482.53,113a21.78,21.78,0,0,0,7.53,9.93,19.63,19.63,0,0,0,11.55,3.44,19.27,19.27,0,0,0,16-7.58Q523.57,111.23,523.57,97.85Z"/><path d="M574.37,42.59a11.67,11.67,0,0,1-7.9-2.83c-2.19-1.89-3.28-4.57-3.28-8A10,10,0,0,1,566.55,24a11.28,11.28,0,0,1,7.82-3A11.56,11.56,0,0,1,582,23.72c2.22,1.83,3.33,4.51,3.33,8a10.16,10.16,0,0,1-3.24,8A11.27,11.27,0,0,1,574.37,42.59Zm10.94,22.85v63.93q0,6.65-3.16,10a10.5,10.5,0,0,1-8,3.4,10,10,0,0,1-7.9-3.49q-3-3.48-3-10V66.09q0-6.57,3-9.89a10.2,10.2,0,0,1,7.9-3.32,10.61,10.61,0,0,1,8,3.32Q585.3,59.53,585.31,65.44Z"/><path d="M628.25,65.12v2.67A38.67,38.67,0,0,1,641,56.49a34,34,0,0,1,15.92-3.61,31.77,31.77,0,0,1,15.64,3.81,24.2,24.2,0,0,1,10.29,10.78,25.55,25.55,0,0,1,2.83,8.75,91,91,0,0,1,.65,12v41.16q0,6.65-3,10a10.92,10.92,0,0,1-15.92-.09q-3.07-3.48-3.08-10V92.5q0-10.94-3-16.73T649.15,70a17.92,17.92,0,0,0-10.77,3.52,20.18,20.18,0,0,0-7.13,9.69q-1.62,4.94-1.62,18.47v27.71q0,6.72-3.12,10.09a10.51,10.51,0,0,1-8.07,3.36,10,10,0,0,1-7.85-3.49q-3.09-3.48-3.08-10V65.44q0-6.31,2.75-9.44a9.55,9.55,0,0,1,7.54-3.12,10.18,10.18,0,0,1,5.26,1.38,9.85,9.85,0,0,1,3.77,4.13A14.65,14.65,0,0,1,628.25,65.12Z"/><path d="M709.8,54.83h2.43V41.54c0-3.57.1-6.36.29-8.39a12.32,12.32,0,0,1,1.58-5.22,10,10,0,0,1,3.72-3.69,10.63,10.63,0,0,1,5.43-1.42A11,11,0,0,1,730.87,26a9.35,9.35,0,0,1,2.87,5.15,46.22,46.22,0,0,1,.61,8.63V54.83h8.11q4.69,0,7.17,2.23a7.36,7.36,0,0,1,2.47,5.71q0,4.45-3.53,6.24t-10.09,1.78h-4.13v40.67a47.32,47.32,0,0,0,.33,6.89,8.11,8.11,0,0,0,1.94,4.53q1.57,1.75,5.15,1.75a101.11,101.11,0,0,0,47.68-12.37c3.42-1.63,6.13-.36,8.31,2.18s2.06,7.39-.44,9.44-8.56,5.75-16.26,9.53c-10.91,5.34-25.19,9.41-44.44,9.41q-10.36,0-15.72-3.49a16.18,16.18,0,0,1-7-9.64,65.75,65.75,0,0,1-1.66-16.45V70.79h-2.91q-4.79,0-7.3-2.27a7.42,7.42,0,0,1-2.51-5.75,7.13,7.13,0,0,1,2.64-5.71Q704.78,54.83,709.8,54.83Z"/></g></g></svg>